<?xml version="1.0" encoding="UTF-8"?>
<svg width="15px" height="16px" viewBox="0 0 15 16" version="1.1" xmlns="http://www.w3.org/2000/svg" xmlns:xlink="http://www.w3.org/1999/xlink">
    <!-- Generator: Sketch 57 (83077) - https://sketch.com -->
    <title>形状</title>
    <desc>Created with Sketch.</desc>
    <g id="页面-1" stroke="none" stroke-width="1" fill="none" fill-rule="evenodd">
        <g id="桌面端HD备份-3" transform="translate(-375.000000, -337.000000)" fill="#19BF6B" fill-rule="nonzero">
            <path d="M381.695279,344.757511 L381.566524,345.530043 L382.339056,345.272532 L388.261803,339.349785 L387.746781,338.834764 L381.695279,344.757511 Z M388.133047,337.2897 L389.806867,338.963519 C390.064378,339.22103 390.064378,339.736052 389.806867,339.993562 L383.240343,346.43133 C383.111588,346.560086 382.982833,346.560086 382.854077,346.688841 L380.536481,347.332618 C380.150215,347.461373 379.763948,347.203863 379.635193,346.817597 L379.635193,346.43133 L380.27897,344.113734 C380.27897,343.984979 380.407725,343.856223 380.407725,343.856223 L386.974249,337.2897 C387.360515,336.903433 387.875536,336.903433 388.133047,337.2897 L388.133047,337.2897 Z M381.695279,337.804721 C382.081545,337.804721 382.467811,338.190987 382.467811,338.577253 C382.467811,338.963519 382.081545,339.349785 381.695279,339.349785 L377.317597,339.349785 C376.93133,339.349785 376.545064,339.736052 376.545064,340.122318 L376.545064,350.036481 C376.545064,350.422747 376.93133,350.809013 377.317597,350.809013 L386.459227,350.809013 C386.845494,350.809013 387.23176,350.422747 387.23176,350.036481 L387.23176,345.401288 C387.23176,345.015021 387.618026,344.628755 388.004292,344.628755 C388.390558,344.628755 388.648069,344.886266 388.648069,345.272532 L388.648069,349.907725 C388.648069,351.195279 387.618026,352.225322 386.330472,352.225322 L377.317597,352.225322 C376.030043,352.225322 375,351.195279 375,349.907725 L375,339.993562 C375,338.706009 376.030043,337.675966 377.317597,337.675966 L381.695279,337.675966 L381.695279,337.804721 Z" id="形状"></path>
        </g>
    </g>
</svg>