<?xml version="1.0" encoding="utf-8"?>
<!-- Generator: Adobe Illustrator 22.1.0, SVG Export Plug-In . SVG Version: 6.00 Build 0)  -->
<svg version="1.1" id="Layer_1" xmlns="http://www.w3.org/2000/svg" xmlns:xlink="http://www.w3.org/1999/xlink" x="0px" y="0px"
	 viewBox="0 0 104 104" style="enable-background:new 0 0 104 104;" xml:space="preserve">
<style type="text/css">
	.st0{fill:#FFFFFF;}
</style>
<title>loading_spinner</title>
<g>
	<g>
		<path class="st0" d="M0,0v104h104V0H0z M96,96H8V8h88V96z"/>
	</g>
	<g>
		<path class="st0" d="M52.5,58.6c4,0,9.2,0,15,0L69.7,73l2.1-14.4c4.8,0,9.9,0,15,0c0-6.8-5.5-12.6-12.9-14.2l2.4-16.1
			c4.2-2,7-5.8,7-10.2c-6.5,0-16.9,0-27.3,0c0,4.4,2.8,8.2,7,10.2l2.4,16.1C58,46,52.5,51.8,52.5,58.6z"/>
	</g>
</g>
</svg>
